<?xml version="1.0" encoding="UTF-8"?>
<svg width="39px" height="72px" viewBox="0 0 39 72" version="1.1" xmlns="http://www.w3.org/2000/svg" xmlns:xlink="http://www.w3.org/1999/xlink">
    <!-- Generator: Sketch 50.2 (55047) - http://www.bohemiancoding.com/sketch -->
    <title>#icon</title>
    <desc>Created with Sketch.</desc>
    <defs></defs>
    <g id="components" stroke="none" stroke-width="1" fill="none" fill-rule="evenodd">
        <g id="Icon_boxes" transform="translate(-1087.000000, -1870.000000)" fill="#FF3C30" fill-rule="nonzero">
            <g id="icon_box_vertical" transform="translate(390.000000, 979.000000)">
                <g id="icon_boxes" transform="translate(0.000000, 867.000000)">
                    <g id="icon_box" transform="translate(585.000000, 0.000000)">
                        <g id="#icon" transform="translate(112.000000, 24.000000)">
                            <path d="M19.0175439,15.8596491 C14.722386,15.8596491 11.2280702,19.3539649 11.2280702,23.6491228 C11.2280702,27.9442807 14.722386,31.4385965 19.0175439,31.4385965 C23.3127018,31.4385965 26.8070175,27.9442807 26.8070175,23.6491228 C26.8070175,19.3539649 23.3127018,15.8596491 19.0175439,15.8596491 Z M19.0175439,29.3333333 C15.8832281,29.3333333 13.3333333,26.7834386 13.3333333,23.6491228 C13.3333333,20.514807 15.8832281,17.9649123 19.0175439,17.9649123 C22.1518596,17.9649123 24.7017544,20.514807 24.7017544,23.6491228 C24.7017544,26.7834386 22.1518596,29.3333333 19.0175439,29.3333333 Z" id="Shape"></path>
                            <path d="M19.0175439,20.3508772 C18.4362105,20.3508772 17.9649123,20.8221754 17.9649123,21.4035088 C17.9649123,21.9848421 18.4362105,22.4561404 19.0175439,22.4561404 C19.6753684,22.4561404 20.2105263,22.9912982 20.2105263,23.6491228 C20.2105263,24.2304561 20.6818246,24.7017544 21.2631579,24.7017544 C21.8444912,24.7017544 22.3157895,24.2304561 22.3157895,23.6491228 C22.3157895,21.8304561 20.8362105,20.3508772 19.0175439,20.3508772 Z" id="Shape"></path>
                            <path d="M36.4648421,53.4364912 L29.7861053,42.9959298 C30.7122807,34.0126316 31.2982456,26.3117193 31.2982456,22.5263158 C31.2982456,14.6811228 28.1198596,9.06133333 25.4534737,5.7282807 C22.5615439,2.11340351 19.6802807,0.362947368 19.5590175,0.290245614 C19.2256842,0.090245614 18.8091228,0.090245614 18.4757895,0.290245614 C18.3545263,0.362947368 15.4732632,2.11340351 12.5813333,5.7282807 C9.91522807,9.06133333 6.73684211,14.6811228 6.73684211,22.5263158 C6.73684211,26.3118596 7.32294737,34.0127719 8.24898246,42.9960702 L1.56898246,53.4385965 C0.542596491,55.0513684 2.84217094e-14,56.914386 2.84217094e-14,58.8262456 L2.84217094e-14,70.8070175 C2.84217094e-14,71.2519298 0.279719298,71.6488421 0.698807018,71.7983158 C0.814596491,71.8397193 0.934175439,71.8596491 1.05249123,71.8596491 C1.36224561,71.8596491 1.66357895,71.7226667 1.86736842,71.4735439 L10.4465965,60.9879298 C11.0419649,62.7525614 12.7127018,64 14.6307368,64 L17.9649123,64 L17.9649123,70.8070175 C17.9649123,71.3883509 18.4362105,71.8596491 19.0175439,71.8596491 C19.5988772,71.8596491 20.0701754,71.3883509 20.0701754,70.8070175 L20.0701754,64 L23.4043509,64 C25.3225263,64 26.9931228,62.7525614 27.5886316,60.9879298 L36.1677193,71.4735439 C36.3716491,71.7226667 36.6728421,71.8596491 36.9825965,71.8596491 C37.1009123,71.8596491 37.2204912,71.8395789 37.3362807,71.7983158 C37.7552281,71.6488421 38.0350877,71.2517895 38.0350877,70.8070175 L38.0350877,58.8262456 C38.0350877,56.9145263 37.4926316,55.0515088 36.4648421,53.4364912 Z M2.10526316,58.8262456 C2.10526316,57.3155088 2.53403509,55.8433684 3.3437193,54.5710877 L8.60392982,46.3479298 C9.02217544,50.1981754 9.49403509,54.2140351 10.0016842,58.2070175 L2.10526316,67.8581053 L2.10526316,58.8262456 Z M23.4044912,61.8947368 L20.0701754,61.8947368 L20.0701754,43.8596491 C20.0701754,43.2783158 19.5988772,42.8070175 19.0175439,42.8070175 C18.4362105,42.8070175 17.9649123,43.2783158 17.9649123,43.8596491 L17.9649123,61.8947368 L14.6307368,61.8947368 C13.474386,61.8947368 12.4891228,61.0269474 12.3390877,59.8763509 C11.6046316,54.2425263 10.9368421,48.5055439 10.3861053,43.205193 C10.3842807,43.165614 10.3800702,43.1264561 10.3738947,43.0875789 C9.43677193,34.0510877 8.84210526,26.3000702 8.84210526,22.5263158 C8.84210526,18.4487018 9.7365614,14.6661053 11.5052632,11.2280702 L20.1403509,11.2280702 C20.7216842,11.2280702 21.1929825,10.7567719 21.1929825,10.1754386 C21.1929825,9.59410526 20.7216842,9.12280702 20.1403509,9.12280702 L12.725614,9.12280702 C13.1705263,8.43621053 13.6523509,7.76463158 14.1729123,7.10933333 C16.1209825,4.65768421 18.0926316,3.11508772 19.0172632,2.45964912 C20.165614,3.27550877 22.9317895,5.46975439 25.2905263,9.12280702 L24.6315789,9.12280702 C24.0502456,9.12280702 23.5789474,9.59410526 23.5789474,10.1754386 C23.5789474,10.7567719 24.0502456,11.2280702 24.6315789,11.2280702 L26.5079298,11.2280702 C28.0485614,14.2258246 29.1929825,17.9813333 29.1929825,22.5263158 C29.1929825,26.2999298 28.5983158,34.0513684 27.661193,43.088 C27.6551579,43.1263158 27.6509474,43.1649123 27.6491228,43.2039298 C27.098386,48.5045614 26.4305965,54.2419649 25.696,59.8763509 C25.5459649,61.0270877 24.5608421,61.8947368 23.4044912,61.8947368 Z M35.9298246,67.8581053 L28.0334035,58.2068772 C28.541193,54.2138947 29.0129123,50.1980351 29.4311579,46.3477895 L34.6899649,54.5688421 C35.5010526,55.8433684 35.9296842,57.3155088 35.9296842,58.8261053 L35.9296842,67.8581053 L35.9298246,67.8581053 Z" id="Shape"></path>
                        </g>
                    </g>
                </g>
            </g>
        </g>
    </g>
</svg>